<svg width="27" height="20" viewBox="0 0 27 20" fill="none" xmlns="http://www.w3.org/2000/svg">
<ellipse cx="4.83962" cy="6.4101" rx="3.31132" ry="3.33325" fill="#FD06D0"/>
<ellipse cx="22.1604" cy="6.4101" rx="3.31132" ry="3.33325" fill="#FDAC16"/>
<ellipse cx="13.7547" cy="4.10247" rx="4.07547" ry="4.10247" fill="#497EE1"/>
<path d="M8.03418 8.81666C8.95131 8.99867 9.64258 9.80701 9.64258 10.7776V16.8889C9.64241 17.9933 8.74704 18.8889 7.64258 18.8889H2C0.895535 18.8889 0.000169006 17.9933 0 16.8889V10.7776C0 9.80744 0.690898 8.99914 1.60742 8.81666C1.62829 10.5855 3.05916 12.0129 4.82129 12.0129C6.58348 12.0129 8.0133 10.5855 8.03418 8.81666Z" fill="#FD06D0"/>
<path d="M25.3913 8.81666C26.3084 8.99864 26.9996 9.80699 26.9996 10.7776V16.8889C26.9995 17.9933 26.1041 18.8889 24.9996 18.8889H19.3571C18.2526 18.8889 17.3572 17.9933 17.3571 16.8889V10.7776C17.3571 9.80746 18.048 8.99917 18.9645 8.81666C18.9854 10.5855 20.4163 12.0128 22.1784 12.0129C23.9406 12.0129 25.3704 10.5855 25.3913 8.81666Z" fill="#FDAC16"/>
<path d="M17.8681 7.17931C18.9726 7.1794 19.8681 8.07479 19.8681 9.17931V17.9996C19.868 19.1041 18.9725 19.9995 17.8681 19.9996H9.64151C8.53698 19.9996 7.64157 19.1041 7.64151 17.9996V9.17931C7.64151 8.07475 8.53694 7.17931 9.64151 7.17931H9.6796C9.6796 9.44504 11.504 11.2819 13.7548 11.2819C16.0056 11.2818 17.83 9.44502 17.83 7.17931H17.8681Z" fill="#497EE1"/>
</svg>
